<svg id="Layer_1" data-name="Layer 1" xmlns="http://www.w3.org/2000/svg" viewBox="0 0 32 32">
   <defs><style>.cls-1{fill:#636255;}.cls-2{fill:#e9f0f9;}.cls-3{fill:#938c73;}.cls-4{fill:#bcc8a4;}.cls-5{fill:#eba35e;}.cls-6{fill:#fdce9c;}.cls-7{fill:#6f5034;}.cls-8{fill:#f7e4a8;}.cls-9{fill:#ad7239;}</style></defs>
   <polygon class="cls-1" points="8 31 7 31 6 31 5 31 5 32 6 32 7 32 8 32 9 32 10 32 10 31 9 31 8 31"/>
   <polygon class="cls-1" points="10 30 10 31 11 31 12 31 12 30 11 30 10 30"/>
   <polygon class="cls-1" points="4 30 3 30 3 31 4 31 5 31 5 30 4 30"/>
   <polygon class="cls-1" points="12 29 12 30 13 30 14 30 14 29 13 29 12 29"/>
   <rect class="cls-1" x="2" y="29" width="1" height="1"/>
   <rect class="cls-1" x="14" y="28" width="1" height="1"/>
   <rect class="cls-1" x="15" y="27" width="1" height="1"/><polygon class="cls-1" points="2 27 1 27 1 28 1 29 2 29 2 28 2 27"/><rect class="cls-1" x="16" y="26" width="1" height="1"/><rect class="cls-1" x="18" y="25" width="1" height="1"/><rect class="cls-1" y="25" width="1" height="1"/><rect class="cls-1" x="19" y="24" width="1" height="1"/><polygon class="cls-1" points="20 22 19 22 18 22 18 23 19 23 20 23 20 24 21 24 21 23 21 22 20 22"/><rect class="cls-1" x="1" y="22" width="1" height="1"/><polygon class="cls-1" points="17 21 16 21 16 22 17 22 18 22 18 21 17 21"/><polygon class="cls-1" points="4 22 5 22 5 21 4 21 3 21 2 21 2 22 3 22 4 22"/><polygon class="cls-1" points="15 20 14 20 14 21 15 21 16 21 16 20 15 20"/><polygon class="cls-1" points="8 21 8 20 7 20 6 20 6 21 7 21 8 21"/><polygon class="cls-1" points="13 19 12 19 11 19 10 19 10 20 11 20 12 20 13 20 14 20 14 19 13 19"/><rect class="cls-2" x="7" y="28" width="1" height="1"/><polygon class="cls-2" points="18 23 17 23 17 22 16 22 15 22 15 21 14 21 13 21 13 22 12 22 11 22 10 22 10 21 9 21 8 21 7 21 7 22 6 22 5 22 4 22 3 22 3 23 2 23 2 24 2 25 3 25 4 25 4 24 5 24 5 25 4 25 4 26 4 27 5 27 5 28 6 28 6 27 7 27 8 27 8 28 9 28 9 29 8 29 8 30 9 30 10 30 10 29 11 29 12 29 13 29 13 28 14 28 14 27 15 27 15 26 16 26 16 25 17 25 18 25 18 24 19 24 19 23 18 23"/><polygon class="cls-2" points="6 20 7 20 7 19 8 19 9 19 10 19 10 18 11 18 11 17 10 17 10 16 9 16 9 15 9 14 8 14 8 13 7 13 7 14 6 14 6 15 6 16 5 16 5 17 5 18 4 18 4 19 4 20 5 20 6 20"/><rect class="cls-3" x="9" y="30" width="1" height="1"/><rect class="cls-3" x="11" y="29" width="1" height="1"/><rect class="cls-3" x="13" y="28" width="1" height="1"/><rect class="cls-3" x="1" y="26" width="1" height="1"/><rect class="cls-3" x="17" y="25" width="1" height="1"/><polygon class="cls-3" points="1 24 1 23 0 23 0 24 0 25 1 25 1 24"/><rect class="cls-3" x="1" y="21" width="1" height="1"/><rect class="cls-3" x="5" y="20" width="1" height="1"/><rect class="cls-3" x="2" y="20" width="1" height="1"/><polygon class="cls-3" points="8 19 8 20 9 20 10 20 10 19 9 19 8 19"/><rect class="cls-3" x="3" y="19" width="1" height="1"/><rect class="cls-3" x="13" y="18" width="1" height="1"/><rect class="cls-3" x="12" y="17" width="1" height="1"/><rect class="cls-3" x="4" y="17" width="1" height="1"/><rect class="cls-3" x="11" y="16" width="1" height="1"/><rect class="cls-3" x="10" y="15" width="1" height="1"/><rect class="cls-3" x="5" y="15" width="1" height="1"/><polygon class="cls-3" points="10 13 9 13 9 14 9 15 10 15 10 14 10 13"/><rect class="cls-3" x="6" y="13" width="1" height="1"/><rect class="cls-3" x="8" y="12" width="1" height="1"/><rect class="cls-4" x="10" y="29" width="1" height="1"/><rect class="cls-4" x="8" y="28" width="1" height="1"/><polygon class="cls-4" points="7 28 8 28 8 27 7 27 6 27 6 28 5 28 5 27 4 27 4 26 4 25 3 25 2 25 2 24 2 23 1 23 1 24 1 25 1 26 2 26 2 27 2 28 2 29 3 29 3 30 4 30 5 30 5 31 6 31 7 31 8 31 9 31 9 30 8 30 8 29 7 29 7 28"/><rect class="cls-4" x="14" y="27" width="1" height="1"/><rect class="cls-4" x="15" y="26" width="1" height="1"/><rect class="cls-4" x="16" y="25" width="1" height="1"/><rect class="cls-4" x="18" y="24" width="1" height="1"/><rect class="cls-4" x="4" y="24" width="1" height="1"/><rect class="cls-4" x="19" y="23" width="1" height="1"/><rect class="cls-4" x="17" y="22" width="1" height="1"/><rect class="cls-4" x="2" y="22" width="1" height="1"/><rect class="cls-4" x="15" y="21" width="1" height="1"/><polygon class="cls-4" points="6 22 7 22 7 21 6 21 5 21 5 22 6 22"/><polygon class="cls-4" points="14 20 13 20 12 20 11 20 10 20 9 20 8 20 8 21 9 21 10 21 10 22 11 22 12 22 13 22 13 21 14 21 14 20"/><polygon class="cls-4" points="5 21 5 20 4 20 3 20 3 21 4 21 5 21"/><rect class="cls-4" x="7" y="19" width="1" height="1"/><polygon class="cls-4" points="10 18 10 19 11 19 12 19 13 19 13 18 12 18 12 17 11 17 11 18 10 18"/><rect class="cls-4" x="3" y="18" width="1" height="1"/><rect class="cls-4" x="10" y="16" width="1" height="1"/><rect class="cls-4" x="4" y="16" width="1" height="1"/><rect class="cls-4" x="9" y="15" width="1" height="1"/><rect class="cls-4" x="5" y="14" width="1" height="1"/><rect class="cls-4" x="8" y="13" width="1" height="1"/><rect class="cls-4" x="7" y="12" width="1" height="1"/><rect class="cls-5" x="18" y="20" width="1" height="1"/><rect class="cls-5" x="19" y="19" width="1" height="1"/><rect class="cls-5" x="22" y="18" width="1" height="1"/><rect class="cls-5" x="20" y="18" width="1" height="1"/><rect class="cls-5" x="23" y="17" width="1" height="1"/><rect class="cls-5" x="21" y="17" width="1" height="1"/><rect class="cls-5" x="16" y="17" width="1" height="1"/><rect class="cls-5" x="14" y="17" width="1" height="1"/><rect class="cls-5" x="24" y="16" width="1" height="1"/><rect class="cls-5" x="22" y="16" width="1" height="1"/><rect class="cls-5" x="19" y="16" width="1" height="1"/><rect class="cls-5" x="17" y="16" width="1" height="1"/><rect class="cls-5" x="15" y="16" width="1" height="1"/><rect class="cls-5" x="12" y="16" width="1" height="1"/><rect class="cls-5" x="25" y="15" width="1" height="1"/><rect class="cls-5" x="23" y="15" width="1" height="1"/><rect class="cls-5" x="20" y="15" width="1" height="1"/><rect class="cls-5" x="18" y="15" width="1" height="1"/><rect class="cls-5" x="16" y="15" width="1" height="1"/><rect class="cls-5" x="13" y="15" width="1" height="1"/><rect class="cls-5" x="27" y="14" width="1" height="1"/><rect class="cls-5" x="24" y="14" width="1" height="1"/><rect class="cls-5" x="21" y="14" width="1" height="1"/><rect class="cls-5" x="19" y="14" width="1" height="1"/><rect class="cls-5" x="17" y="14" width="1" height="1"/><rect class="cls-5" x="14" y="14" width="1" height="1"/><rect class="cls-5" x="10" y="14" width="1" height="1"/><polygon class="cls-5" points="26 13 25 13 25 14 26 14 27 14 27 13 26 13"/><rect class="cls-5" x="22" y="13" width="1" height="1"/><rect class="cls-5" x="20" y="13" width="1" height="1"/><rect class="cls-5" x="18" y="13" width="1" height="1"/><rect class="cls-5" x="15" y="13" width="1" height="1"/><rect class="cls-5" x="11" y="13" width="1" height="1"/><rect class="cls-5" x="21" y="12" width="1" height="1"/><rect class="cls-5" x="19" y="12" width="1" height="1"/><rect class="cls-5" x="16" y="12" width="1" height="1"/><rect class="cls-5" x="14" y="12" width="1" height="1"/><rect class="cls-5" x="12" y="12" width="1" height="1"/><rect class="cls-5" x="25" y="11" width="1" height="1"/><rect class="cls-5" x="22" y="11" width="1" height="1"/><rect class="cls-5" x="20" y="11" width="1" height="1"/><rect class="cls-5" x="17" y="11" width="1" height="1"/><rect class="cls-5" x="15" y="11" width="1" height="1"/><rect class="cls-5" x="13" y="11" width="1" height="1"/><rect class="cls-5" x="10" y="11" width="1" height="1"/><polygon class="cls-5" points="22 10 22 9 21 9 21 10 21 11 22 11 22 10"/><rect class="cls-5" x="18" y="10" width="1" height="1"/><polygon class="cls-5" points="15 10 15 9 14 9 14 10 14 11 15 11 15 10"/><rect class="cls-5" x="12" y="10" width="1" height="1"/><rect class="cls-5" x="23" y="9" width="1" height="1"/><rect class="cls-5" x="16" y="9" width="1" height="1"/><rect class="cls-5" x="11" y="9" width="1" height="1"/><polygon class="cls-5" points="23 8 23 7 22 7 22 8 22 9 23 9 23 8"/><rect class="cls-5" x="19" y="8" width="1" height="1"/><polygon class="cls-5" points="17 9 18 9 18 8 18 7 17 7 17 8 17 9"/><polygon class="cls-5" points="16 8 16 7 15 7 15 8 15 9 16 9 16 8"/><rect class="cls-5" x="13" y="8" width="1" height="1"/><polygon class="cls-5" points="24 8 24 9 25 9 25 8 25 7 25 6 24 6 24 5 23 5 23 6 23 7 24 7 24 8"/><rect class="cls-5" x="12" y="7" width="1" height="1"/><rect class="cls-5" x="20" y="6" width="1" height="1"/><polygon class="cls-5" points="17 6 17 5 16 5 16 6 16 7 17 7 17 6"/><rect class="cls-5" x="14" y="6" width="1" height="1"/><rect class="cls-5" x="13" y="5" width="1" height="1"/><rect class="cls-5" x="21" y="4" width="1" height="1"/><rect class="cls-6" x="18" y="18" width="1" height="1"/><rect class="cls-6" x="19" y="17" width="1" height="1"/><rect class="cls-6" x="20" y="16" width="1" height="1"/><rect class="cls-6" x="13" y="16" width="1" height="1"/><rect class="cls-6" x="21" y="15" width="1" height="1"/><rect class="cls-6" x="14" y="15" width="1" height="1"/><rect class="cls-6" x="22" y="14" width="1" height="1"/><rect class="cls-6" x="15" y="14" width="1" height="1"/><rect class="cls-6" x="23" y="13" width="1" height="1"/><rect class="cls-6" x="16" y="13" width="1" height="1"/><rect class="cls-6" x="27" y="12" width="1" height="1"/><rect class="cls-6" x="24" y="12" width="1" height="1"/><rect class="cls-6" x="17" y="12" width="1" height="1"/><rect class="cls-6" x="10" y="12" width="1" height="1"/><rect class="cls-6" x="26" y="11" width="1" height="1"/><rect class="cls-6" x="18" y="11" width="1" height="1"/><polygon class="cls-6" points="11 11 11 12 12 12 12 11 12 10 11 10 11 11"/><polygon class="cls-6" points="19 10 19 11 20 11 20 10 20 9 19 9 19 10"/><polygon class="cls-6" points="13 9 13 8 12 8 12 9 12 10 13 10 13 9"/><polygon class="cls-6" points="20 8 20 9 21 9 21 8 21 7 20 7 20 8"/><polygon class="cls-6" points="14 7 14 6 13 6 13 7 13 8 14 8 14 7"/><rect class="cls-6" x="25" y="6" width="1" height="1"/><rect class="cls-6" x="26" y="5" width="1" height="1"/><rect class="cls-6" x="24" y="5" width="1" height="1"/><polygon class="cls-6" points="21 6 21 7 22 7 22 6 22 5 21 5 21 6"/><polygon class="cls-6" points="15 5 16 5 17 5 18 5 18 4 17 4 16 4 15 4 15 3 14 3 14 4 14 5 14 6 15 6 15 5"/><polygon class="cls-6" points="23 4 23 3 23 2 22 2 22 3 22 4 22 5 23 5 24 5 24 4 23 4"/><rect class="cls-7" x="20" y="21" width="1" height="1"/><rect class="cls-7" x="21" y="20" width="1" height="1"/><rect class="cls-7" x="22" y="19" width="1" height="1"/><rect class="cls-7" x="15" y="19" width="1" height="1"/><rect class="cls-7" x="23" y="18" width="1" height="1"/><rect class="cls-7" x="16" y="18" width="1" height="1"/><rect class="cls-7" x="24" y="17" width="1" height="1"/><rect class="cls-7" x="17" y="17" width="1" height="1"/><rect class="cls-7" x="25" y="16" width="1" height="1"/><rect class="cls-7" x="18" y="16" width="1" height="1"/><polygon class="cls-7" points="26 15 26 16 27 16 28 16 28 15 27 15 26 15"/><rect class="cls-7" x="19" y="15" width="1" height="1"/><rect class="cls-7" x="12" y="15" width="1" height="1"/><polygon class="cls-7" points="28 14 28 15 29 15 30 15 30 14 29 14 28 14"/><rect class="cls-7" x="20" y="14" width="1" height="1"/><rect class="cls-7" x="13" y="14" width="1" height="1"/><rect class="cls-7" x="21" y="13" width="1" height="1"/><rect class="cls-7" x="14" y="13" width="1" height="1"/><rect class="cls-7" x="22" y="12" width="1" height="1"/><rect class="cls-7" x="15" y="12" width="1" height="1"/><rect class="cls-7" x="9" y="12" width="1" height="1"/><polygon class="cls-7" points="30 11 29 11 29 10 28 10 27 10 27 11 28 11 28 12 29 12 29 13 30 13 30 14 31 14 31 13 31 12 31 11 30 11"/><rect class="cls-7" x="23" y="11" width="1" height="1"/><rect class="cls-7" x="16" y="11" width="1" height="1"/><rect class="cls-7" x="24" y="10" width="1" height="1"/><polygon class="cls-7" points="18 10 18 9 17 9 17 10 17 11 18 11 18 10"/><rect class="cls-7" x="10" y="10" width="1" height="1"/><polygon class="cls-7" points="26 9 26 8 25 8 25 9 25 10 26 10 26 9"/><polygon class="cls-7" points="19 8 19 7 18 7 18 8 18 9 19 9 19 8"/><polygon class="cls-7" points="27 7 27 6 26 6 26 7 26 8 27 8 27 7"/><polygon class="cls-7" points="20 6 21 6 21 5 21 4 20 4 20 5 19 5 19 6 19 7 20 7 20 6"/><polygon class="cls-7" points="28 5 28 4 27 4 27 5 27 6 28 6 28 5"/><polygon class="cls-7" points="24 4 25 4 25 5 26 5 26 4 26 3 25 3 25 2 24 2 24 1 23 1 23 2 23 3 24 3 24 4"/><rect class="cls-7" x="21" y="3" width="1" height="1"/><polygon class="cls-7" points="16 4 17 4 18 4 18 3 18 2 17 2 16 2 15 2 15 3 16 3 16 4"/><polygon class="cls-8" points="10 31 10 32 11 32 12 32 12 31 11 31 10 31"/><polygon class="cls-8" points="12 30 12 31 13 31 14 31 14 30 13 30 12 30"/><rect class="cls-8" x="14" y="29" width="1" height="1"/><rect class="cls-8" x="15" y="28" width="1" height="1"/><rect class="cls-8" x="16" y="27" width="1" height="1"/><polygon class="cls-8" points="17 26 17 27 18 27 19 27 19 26 18 26 17 26"/><rect class="cls-8" x="19" y="25" width="1" height="1"/><rect class="cls-8" x="20" y="24" width="1" height="1"/><polygon class="cls-8" points="21 22 21 23 21 24 22 24 22 23 22 22 22 21 21 21 21 22"/><rect class="cls-8" x="22" y="20" width="1" height="1"/><rect class="cls-8" x="23" y="19" width="1" height="1"/><rect class="cls-8" x="24" y="18" width="1" height="1"/><rect class="cls-8" x="25" y="17" width="1" height="1"/><polygon class="cls-8" points="26 16 26 17 27 17 28 17 28 16 27 16 26 16"/><polygon class="cls-8" points="28 15 28 16 29 16 30 16 30 15 29 15 28 15"/><rect class="cls-8" x="30" y="14" width="1" height="1"/><polygon class="cls-8" points="31 11 31 12 31 13 31 14 32 14 32 13 32 12 32 11 31 11"/><rect class="cls-8" x="30" y="10" width="1" height="1"/><rect class="cls-8" x="29" y="9" width="1" height="1"/><polygon class="cls-8" points="28 8 28 7 28 6 27 6 27 7 27 8 26 8 26 9 27 9 28 9 29 9 29 8 28 8"/><polygon class="cls-8" points="29 5 29 4 28 4 28 5 28 6 29 6 29 5"/><polygon class="cls-8" points="19 4 19 5 20 5 20 4 20 3 20 2 19 2 19 3 19 4"/><polygon class="cls-8" points="28 2 27 2 27 3 27 4 28 4 28 3 28 2"/><rect class="cls-8" x="26" y="1" width="1" height="1"/><rect class="cls-8" x="18" y="1" width="1" height="1"/><rect class="cls-8" x="25" width="1" height="1"/><polygon class="cls-9" points="19 20 19 19 18 19 18 18 17 18 17 19 16 19 16 20 16 21 17 21 18 21 18 20 19 20"/><polygon class="cls-9" points="21 19 20 19 20 20 19 20 19 21 18 21 18 22 19 22 20 22 20 21 21 21 21 20 22 20 22 19 22 18 21 18 21 19"/><rect class="cls-9" x="19" y="18" width="1" height="1"/><rect class="cls-9" x="22" y="17" width="1" height="1"/><rect class="cls-9" x="20" y="17" width="1" height="1"/><rect class="cls-9" x="18" y="17" width="1" height="1"/><polygon class="cls-9" points="16 17 15 17 15 18 14 18 14 19 14 20 15 20 15 19 16 19 16 18 16 17"/><rect class="cls-9" x="13" y="17" width="1" height="1"/><rect class="cls-9" x="23" y="16" width="1" height="1"/><rect class="cls-9" x="21" y="16" width="1" height="1"/><rect class="cls-9" x="16" y="16" width="1" height="1"/><rect class="cls-9" x="14" y="16" width="1" height="1"/><rect class="cls-9" x="24" y="15" width="1" height="1"/><rect class="cls-9" x="22" y="15" width="1" height="1"/><rect class="cls-9" x="17" y="15" width="1" height="1"/><rect class="cls-9" x="15" y="15" width="1" height="1"/><polygon class="cls-9" points="25 14 25 15 26 15 27 15 27 14 26 14 25 14"/><rect class="cls-9" x="23" y="14" width="1" height="1"/><rect class="cls-9" x="18" y="14" width="1" height="1"/><rect class="cls-9" x="16" y="14" width="1" height="1"/><polygon class="cls-9" points="13 14 14 14 14 13 14 12 13 12 13 13 12 13 12 14 11 14 11 15 11 16 12 16 12 15 13 15 13 14"/><polygon class="cls-9" points="27 13 27 14 28 14 29 14 30 14 30 13 29 13 29 12 28 12 28 13 27 13"/><rect class="cls-9" x="24" y="13" width="1" height="1"/><rect class="cls-9" x="19" y="13" width="1" height="1"/><rect class="cls-9" x="17" y="13" width="1" height="1"/><rect class="cls-9" x="10" y="13" width="1" height="1"/><polygon class="cls-9" points="26 13 27 13 27 12 26 12 25 12 25 13 26 13"/><rect class="cls-9" x="23" y="12" width="1" height="1"/><rect class="cls-9" x="20" y="12" width="1" height="1"/><rect class="cls-9" x="18" y="12" width="1" height="1"/><rect class="cls-9" x="11" y="12" width="1" height="1"/><rect class="cls-9" x="27" y="11" width="1" height="1"/><rect class="cls-9" x="24" y="11" width="1" height="1"/><rect class="cls-9" x="21" y="11" width="1" height="1"/><rect class="cls-9" x="19" y="11" width="1" height="1"/><rect class="cls-9" x="14" y="11" width="1" height="1"/><rect class="cls-9" x="12" y="11" width="1" height="1"/><rect class="cls-9" x="9" y="11" width="1" height="1"/><rect class="cls-9" x="29" y="10" width="1" height="1"/><polygon class="cls-9" points="23 10 23 9 22 9 22 10 22 11 23 11 24 11 24 10 23 10"/><polygon class="cls-9" points="21 10 21 9 20 9 20 10 20 11 21 11 21 10"/><polygon class="cls-9" points="14 10 14 9 13 9 13 10 13 11 14 11 14 10"/><polygon class="cls-9" points="28 9 27 9 26 9 26 10 25 10 25 11 26 11 27 11 27 10 28 10 29 10 29 9 28 9"/><rect class="cls-9" x="24" y="9" width="1" height="1"/><rect class="cls-9" x="18" y="9" width="1" height="1"/><polygon class="cls-9" points="15 10 15 11 16 11 17 11 17 10 16 10 16 9 15 9 15 10"/><rect class="cls-9" x="10" y="9" width="1" height="1"/><polygon class="cls-9" points="23 9 24 9 24 8 24 7 23 7 23 8 23 9"/><polygon class="cls-9" points="22 8 22 7 21 7 21 8 21 9 22 9 22 8"/><polygon class="cls-9" points="16 9 17 9 17 8 17 7 16 7 16 8 16 9"/><polygon class="cls-9" points="15 8 15 7 14 7 14 8 14 9 15 9 15 8"/><rect class="cls-9" x="25" y="7" width="1" height="1"/><rect class="cls-9" x="19" y="7" width="1" height="1"/><polygon class="cls-9" points="11 8 11 9 12 9 12 8 12 7 11 7 11 8"/><polygon class="cls-9" points="23 6 23 5 22 5 22 6 22 7 23 7 23 6"/><polygon class="cls-9" points="19 7 19 6 19 5 19 4 19 3 19 2 18 2 18 3 18 4 18 5 17 5 17 6 17 7 18 7 19 7"/><polygon class="cls-9" points="16 6 16 5 15 5 15 6 15 7 16 7 16 6"/><rect class="cls-9" x="25" y="5" width="1" height="1"/><polygon class="cls-9" points="12 6 12 7 13 7 13 6 13 5 12 5 12 6"/><rect class="cls-9" x="24" y="4" width="1" height="1"/><rect class="cls-9" x="23" y="3" width="1" height="1"/><rect class="cls-9" x="20" y="3" width="1" height="1"/><rect class="cls-9" x="15" y="3" width="1" height="1"/><polygon class="cls-9" points="22 2 23 2 23 1 24 1 24 2 25 2 25 3 26 3 26 4 26 5 27 5 27 4 27 3 27 2 26 2 26 1 25 1 25 0 24 0 23 0 22 0 22 1 21 1 21 2 21 3 22 3 22 2"/><polygon class="cls-9" points="17 1 16 1 15 1 14 1 14 2 13 2 13 3 13 4 13 5 14 5 14 4 14 3 15 3 15 2 16 2 17 2 18 2 18 1 17 1"/></svg>
